<mxfile host="app.diagrams.net" modified="2023-09-25T06:54:03.714Z" agent="Mozilla/5.0 (Windows NT 10.0; Win64; x64) AppleWebKit/537.36 (KHTML, like Gecko) Chrome/116.0.0.0 Safari/537.36 Edg/116.0.1938.69" version="21.8.2" etag="VfIUXn6cTK1tx56MKSWL" type="github">
  <diagram name="Страница — 1" id="f2pdmPV-p2VuMnOArlLg">
    <mxGraphModel>
      <root>
        <mxCell id="0" />
        <mxCell id="1" parent="0" />
      </root>
    </mxGraphModel>
  </diagram>
</mxfile>
